<svg width="50" height="50" viewBox="0 0 50 50" fill="none" xmlns="http://www.w3.org/2000/svg">
<circle opacity="0.1" cx="25" cy="25" r="25" fill="#212353"/>
<path d="M25.0018 20.7012C22.7316 20.7012 20.9005 22.4717 20.9005 24.6666C20.9005 26.8616 22.7316 28.6321 25.0018 28.6321C27.2719 28.6321 29.1031 26.8616 29.1031 24.6666C29.1031 22.4717 27.2719 20.7012 25.0018 20.7012ZM25.0018 27.2447C23.5347 27.2447 22.3354 26.0885 22.3354 24.6666C22.3354 23.2447 23.5312 22.0886 25.0018 22.0886C26.4724 22.0886 27.6682 23.2447 27.6682 24.6666C27.6682 26.0885 26.4688 27.2447 25.0018 27.2447ZM30.2274 20.539C30.2274 21.0532 29.7991 21.4639 29.2708 21.4639C28.739 21.4639 28.3142 21.0498 28.3142 20.539C28.3142 20.0282 28.7426 19.6141 29.2708 19.6141C29.7991 19.6141 30.2274 20.0282 30.2274 20.539ZM32.9438 21.4777C32.8831 20.2387 32.5904 19.1413 31.6516 18.237C30.7165 17.3328 29.5814 17.0498 28.2999 16.9877C26.9793 16.9152 23.0207 16.9152 21.7001 16.9877C20.4222 17.0464 19.2871 17.3294 18.3484 18.2336C17.4096 19.1378 17.1205 20.2353 17.0562 21.4743C16.9813 22.7512 16.9813 26.5786 17.0562 27.8555C17.1169 29.0945 17.4096 30.192 18.3484 31.0962C19.2871 32.0004 20.4186 32.2834 21.7001 32.3455C23.0207 32.418 26.9793 32.418 28.2999 32.3455C29.5814 32.2869 30.7165 32.0039 31.6516 31.0962C32.5868 30.192 32.8795 29.0945 32.9438 27.8555C33.0187 26.5786 33.0187 22.7547 32.9438 21.4777ZM31.2376 29.2257C30.9592 29.9021 30.4202 30.4232 29.717 30.6959C28.664 31.0997 26.1654 31.0065 25.0018 31.0065C23.8381 31.0065 21.336 31.0962 20.2866 30.6959C19.5869 30.4267 19.048 29.9055 18.766 29.2257C18.3484 28.2076 18.4447 25.7917 18.4447 24.6666C18.4447 23.5415 18.3519 21.1222 18.766 20.1076C19.0444 19.4312 19.5834 18.91 20.2866 18.6374C21.3395 18.2336 23.8381 18.3268 25.0018 18.3268C26.1654 18.3268 28.6676 18.237 29.717 18.6374C30.4166 18.9066 30.9556 19.4277 31.2376 20.1076C31.6552 21.1257 31.5588 23.5415 31.5588 24.6666C31.5588 25.7917 31.6552 28.211 31.2376 29.2257Z" fill="white"/>
</svg>
