<?xml version="1.0" encoding="utf-8"?>
<!-- Generator: Adobe Illustrator 25.1.0, SVG Export Plug-In . SVG Version: 6.00 Build 0)  -->
<svg version="1.1" id="Layer_1" xmlns="http://www.w3.org/2000/svg" xmlns:xlink="http://www.w3.org/1999/xlink" x="0px" y="0px"
	 viewBox="0 0 432.9 358" style="enable-background:new 0 0 432.9 358;" xml:space="preserve">
<style type="text/css">
	.st0{opacity:0.1;fill:#68C9BA;enable-background:new    ;}
	.st1{fill:none;stroke:#FFFFFF;stroke-width:1.5;}
</style>
<path class="st0" d="M43.9,41.7C48,17.6,68.8,0,93.3,0h289.7c27.6,0,50,22.4,50,50v258c0,27.6-22.4,50-50,50H50
	c-30.9,0-54.4-27.8-49.3-58.3L43.9,41.7z"/>
<path class="st1" d="M400.4,124c25.7,29.2-4.7,57.4-58.1,58.1C236,175.1,212,81,220,59.9s32-21.7,67.4,21.3
	C322.9,124.2,368.2,87.6,400.4,124z"/>
<ellipse transform="matrix(0.3538 -0.9353 0.9353 0.3538 136.1412 315.3478)" class="st1" cx="296.3" cy="59.2" rx="10" ry="16.8"/>
</svg>
