<?xml version="1.0" encoding="utf-8"?>
<!-- Generator: Adobe Illustrator 25.1.0, SVG Export Plug-In . SVG Version: 6.00 Build 0)  -->
<svg version="1.1" id="Layer_1" xmlns="http://www.w3.org/2000/svg" xmlns:xlink="http://www.w3.org/1999/xlink" x="0px" y="0px"
	 viewBox="0 0 432.9 358" style="enable-background:new 0 0 432.9 358;" xml:space="preserve">
<style type="text/css">
	.st0{opacity:0.1;fill:#2D9CDB;enable-background:new    ;}
	.st1{fill:none;stroke:#FFFFFF;stroke-width:1.5;}
</style>
<path class="st0" d="M43.9,41.7C48,17.6,68.8,0,93.3,0h289.7c27.6,0,50,22.4,50,50v258c0,27.6-22.4,50-50,50H50
	c-30.9,0-54.4-27.8-49.3-58.3L43.9,41.7z"/>
<ellipse transform="matrix(0.3538 -0.9353 0.9353 0.3538 -44.988 546.947)" class="st1" cx="373.3" cy="306" rx="18.3" ry="30.9"/>
<path class="st1" d="M99.4,247.7c-60.5,12.2-75.2-51.9-33.8-126c94-140.6,242.4-98.8,265.1-71c22.6,27.8,4.4,61.1-82.8,75.7
	C160.7,141,175,232.5,99.4,247.7z"/>
</svg>
