<svg width="50" height="50" viewBox="0 0 50 50" fill="none" xmlns="http://www.w3.org/2000/svg">
<circle opacity="0.1" cx="25" cy="25" r="25" fill="#212353"/>
<path fill-rule="evenodd" clip-rule="evenodd" d="M24.9096 21.4372L24.8699 20.8073C24.7511 19.1747 25.7939 17.6836 27.4438 17.1051C28.051 16.8994 29.0805 16.8737 29.7537 17.0537C30.0177 17.1308 30.5193 17.3879 30.8756 17.6193L31.5224 18.0435L32.2352 17.825C32.6312 17.7093 33.1592 17.5165 33.3967 17.3879C33.6211 17.2722 33.8191 17.2079 33.8191 17.2465C33.8191 17.465 33.3307 18.2106 32.9216 18.6219C32.3672 19.2004 32.5256 19.2519 33.6475 18.8662C34.3207 18.6477 34.3338 18.6477 34.2019 18.8919C34.1226 19.0204 33.7135 19.4704 33.2779 19.8817C32.5387 20.5887 32.4992 20.6659 32.4992 21.2572C32.4992 22.1699 32.0504 24.0724 31.6016 25.1136C30.77 27.0675 28.9881 29.0857 27.2062 30.1012C24.6984 31.5281 21.3589 31.888 18.5475 31.0525C17.6103 30.7696 16 30.0498 16 29.9213C16 29.8827 16.4883 29.8312 17.0824 29.8184C18.3231 29.7927 19.5638 29.4584 20.6197 28.8671L21.3326 28.4558L20.5142 28.1859C19.3526 27.8002 18.3099 26.9132 18.0459 26.0777C17.9667 25.8077 17.9931 25.7949 18.7323 25.7949L19.4978 25.782L18.8511 25.4864C18.0855 25.1136 17.3859 24.4837 17.0427 23.8409C16.7919 23.3782 16.4752 22.2084 16.5676 22.1184C16.5939 22.0799 16.8712 22.157 17.188 22.2598C18.0987 22.5812 18.2175 22.504 17.6895 21.9642C16.6995 20.9872 16.396 19.5346 16.8712 18.1592L17.0956 17.5422L17.9667 18.3777C19.7486 20.0617 21.8473 21.0644 24.2496 21.36L24.9096 21.4372Z" fill="white"/>
</svg>
